<svg xmlns="http://www.w3.org/2000/svg" width="600" height="400" viewBox="0 0 600 400">
  <defs>
    <linearGradient id="batBg" x1="0%" y1="0%" x2="100%" y2="100%">
      <stop offset="0%" stop-color="#0a0f1d"/>
      <stop offset="100%" stop-color="#020617"/>
    </linearGradient>
    <linearGradient id="batCell" x1="0%" y1="0%" x2="0%" y2="100%">
      <stop offset="0%" stop-color="#1e293b"/>
      <stop offset="100%" stop-color="#0f172a"/>
    </linearGradient>
    <linearGradient id="goldPin" x1="0%" y1="0%" x2="100%" y2="0%">
      <stop offset="0%" stop-color="#d97706"/>
      <stop offset="50%" stop-color="#fbbf24"/>
      <stop offset="100%" stop-color="#d97706"/>
    </linearGradient>
  </defs>

  <rect width="600" height="400" fill="url(#batBg)" rx="16"/>
  <rect x="1" y="1" width="598" height="398" fill="none" stroke="#10b981" stroke-opacity="0.3" rx="15" stroke-width="1.5"/>

  <!-- Battery Pack Shell -->
  <g transform="translate(190, 40)">
    <rect x="0" y="0" width="220" height="290" rx="14" fill="url(#batCell)" stroke="#334155" stroke-width="2.5"/>
    
    <!-- Top Flex Connector -->
    <rect x="30" y="-18" width="50" height="20" rx="4" fill="#0f172a" stroke="#475569" stroke-width="1.5"/>
    <rect x="40" y="-14" width="30" height="8" rx="2" fill="url(#goldPin)"/>

    <!-- Battery Capacity Badge -->
    <circle cx="110" cy="85" r="42" fill="#10b981" fill-opacity="0.12" stroke="#10b981" stroke-width="2"/>
    <text x="110" y="80" font-family="sans-serif" font-weight="900" font-size="20" fill="#10b981" text-anchor="middle">100%</text>
    <text x="110" y="98" font-family="sans-serif" font-weight="800" font-size="9" fill="#34d399" text-anchor="middle">HEALTH CAPACITY</text>

    <text x="110" y="155" font-family="sans-serif" font-weight="900" font-size="14" fill="#ffffff" text-anchor="middle">TI-CHIPSET OEM CELL</text>
    <text x="110" y="175" font-family="sans-serif" font-weight="700" font-size="11" fill="#94a3b8" text-anchor="middle">0 Cycles • Zero Degradation</text>
    <text x="110" y="195" font-family="sans-serif" font-weight="700" font-size="10" fill="#64748b" text-anchor="middle">No Warning Message Tag</text>

    <!-- Certification Barcode Graphic -->
    <rect x="30" y="225" width="160" height="40" rx="6" fill="#020617" stroke="#1e293b" stroke-width="1"/>
    <g opacity="0.6" stroke="#94a3b8" stroke-width="2">
      <line x1="45" y1="233" x2="45" y2="257"/>
      <line x1="50" y1="233" x2="50" y2="257"/>
      <line x1="57" y1="233" x2="57" y2="257"/>
      <line x1="62" y1="233" x2="62" y2="257"/>
      <line x1="72" y1="233" x2="72" y2="257"/>
      <line x1="79" y1="233" x2="79" y2="257"/>
      <line x1="88" y1="233" x2="88" y2="257"/>
      <line x1="98" y1="233" x2="98" y2="257"/>
      <line x1="105" y1="233" x2="105" y2="257"/>
      <line x1="115" y1="233" x2="115" y2="257"/>
      <line x1="125" y1="233" x2="125" y2="257"/>
      <line x1="135" y1="233" x2="135" y2="257"/>
      <line x1="145" y1="233" x2="145" y2="257"/>
      <line x1="155" y1="233" x2="155" y2="257"/>
      <line x1="165" y1="233" x2="165" y2="257"/>
      <line x1="175" y1="233" x2="175" y2="257"/>
    </g>
  </g>

  <g transform="translate(30, 45)">
    <rect x="0" y="0" width="130" height="26" rx="8" fill="#10b981" fill-opacity="0.15" stroke="#10b981" stroke-width="1.5"/>
    <text x="65" y="17" font-family="sans-serif" font-weight="800" font-size="11" fill="#34d399" text-anchor="middle">GRADE-A OEM CELL</text>
  </g>

  <g transform="translate(440, 45)">
    <rect x="0" y="0" width="130" height="26" rx="8" fill="#1D9BB5" fill-opacity="0.15" stroke="#1D9BB5" stroke-width="1.5"/>
    <text x="65" y="17" font-family="sans-serif" font-weight="800" font-size="11" fill="#1D9BB5" text-anchor="middle">TI BMS CHIPSET</text>
  </g>

  <text x="300" y="380" font-family="sans-serif" font-weight="800" font-size="12" fill="#94a3b8" text-anchor="middle">iPhone 13 Mini Battery Cell Assembly</text>
</svg>