<svg xmlns="http://www.w3.org/2000/svg" width="600" height="400" viewBox="0 0 600 400">
  <defs>
    <linearGradient id="bgGrad" x1="0%" y1="0%" x2="100%" y2="100%">
      <stop offset="0%" stop-color="#090E17"/>
      <stop offset="100%" stop-color="#020617"/>
    </linearGradient>
    <linearGradient id="frameGrad" x1="0%" y1="0%" x2="0%" y2="100%">
      <stop offset="0%" stop-color="#1e293b"/>
      <stop offset="100%" stop-color="#0f172a"/>
    </linearGradient>
    <linearGradient id="screenGrad" x1="0%" y1="0%" x2="100%" y2="100%">
      <stop offset="0%" stop-color="#030712"/>
      <stop offset="100%" stop-color="#0b1329"/>
    </linearGradient>
    <linearGradient id="goldFlex" x1="0%" y1="0%" x2="100%" y2="0%">
      <stop offset="0%" stop-color="#b45309"/>
      <stop offset="50%" stop-color="#f59e0b"/>
      <stop offset="100%" stop-color="#b45309"/>
    </linearGradient>
  </defs>

  <rect width="600" height="400" fill="url(#bgGrad)" rx="16"/>
  <rect x="1" y="1" width="598" height="398" fill="none" stroke="#1D9BB5" stroke-opacity="0.3" rx="15" stroke-width="1.5"/>

  <g opacity="0.12" stroke="#1D9BB5" stroke-width="1">
    <line x1="40" y1="0" x2="40" y2="400"/>
    <line x1="560" y1="0" x2="560" y2="400"/>
    <line x1="0" y1="50" x2="600" y2="50"/>
    <line x1="0" y1="350" x2="600" y2="350"/>
  </g>

  <g transform="translate(0, 0)">
    <rect x="195" y="25" width="210" height="315" rx="32" fill="url(#frameGrad)" stroke="#1D9BB5" stroke-width="3"/>
    <rect x="207" y="37" width="186" height="291" rx="24" fill="url(#screenGrad)" stroke="#000000" stroke-width="2"/>
    <rect x="250" y="42" width="100" height="22" rx="11" fill="#000000" stroke="#334155" stroke-width="1.5"/><circle cx="330" cy="53" r="4.5" fill="#1D9BB5"/><circle cx="270" cy="53" r="3.5" fill="#0f172a"/>
    <path d="M210 50 L380 50 L350 220 L210 220 Z" fill="#ffffff" fill-opacity="0.03"/>
    <circle cx="300" cy="175" r="46" fill="#1D9BB5" fill-opacity="0.1" stroke="#1D9BB5" stroke-width="1.5" stroke-dasharray="4,3"/>
    <rect x="282" y="157" width="36" height="36" rx="8" fill="#0f172a" stroke="#1D9BB5" stroke-width="2"/>
    <text x="300" y="180" font-family="sans-serif" font-weight="900" font-size="13" fill="#1D9BB5" text-anchor="middle">JH</text>
    <text x="300" y="235" font-family="sans-serif" font-weight="900" font-size="14" fill="#ffffff" text-anchor="middle" letter-spacing="1">INCELL (JH)</text>
    <text x="300" y="252" font-family="sans-serif" font-weight="700" font-size="10" fill="#38bdf8" text-anchor="middle">HIGH BRIGHTNESS DISPLAY</text>
    <g transform="translate(255, 332)">
      <rect x="0" y="0" width="90" height="38" rx="5" fill="#18181b" stroke="#3f3f46" stroke-width="1.5"/>
      <rect x="15" y="4" width="60" height="8" rx="2" fill="url(#goldFlex)"/>
      <rect x="25" y="16" width="40" height="16" rx="3" fill="#09090b" stroke="#71717a" stroke-width="1"/>
      <text x="45" y="28" font-family="monospace" font-weight="800" font-size="8" fill="#e4e4e7" text-anchor="middle">IC CHIP</text>
    </g>
  </g>

  <g transform="translate(30, 45)">
    <rect x="0" y="0" width="135" height="26" rx="8" fill="#1D9BB5" fill-opacity="0.15" stroke="#1D9BB5" stroke-width="1.5"/>
    <text x="67" y="17" font-family="sans-serif" font-weight="800" font-size="11" fill="#1D9BB5" text-anchor="middle">GRADE AAA+ INCELL</text>
  </g>

  <g transform="translate(435, 45)">
    <rect x="0" y="0" width="135" height="26" rx="8" fill="#0284c7" fill-opacity="0.15" stroke="#0284c7" stroke-width="1.5"/>
    <text x="67" y="17" font-family="sans-serif" font-weight="800" font-size="11" fill="#38bdf8" text-anchor="middle">TRUE TONE READY</text>
  </g>

  <text x="300" y="388" font-family="sans-serif" font-weight="800" font-size="12" fill="#94a3b8" text-anchor="middle">iPhone 14 Pro Max Display Assembly</text>
</svg>